# xmcd
#
# Track frame offsets:
#	150
#	18215
#	35884
#	49037
#	71462
#	86067
#	106944
#	127865
#	147106
#	164067
#	176212
#	195133
#
# Disc length: 2853 seconds
#
# Revision: 1
# Processed by: cddbd v1.5.1PL0 Copyright (c) Steve Scherf et al.
# Submitted via: EasyCDDAExtractor 7.0.5.4
#
DISCID=9e0b230c
DTITLE=Faithful Heart - Endless Love
DYEAR=2002
DGENRE=Gospel
TTITLE0=Endless Love
TTITLE1=Leaning
TTITLE2=Keep The Faith
TTITLE3=Power Of Prayer
TTITLE4=Still Believing
TTITLE5=Lonesome
TTITLE6=The Guy Who Yodels
TTITLE7=Prayer Time Warrior
TTITLE8=I'm Surrounded
TTITLE9=I'm Ridin' Home
TTITLE10=A Touch From Heaven
TTITLE11=Holiness
EXTD=
EXTT0=
EXTT1=
EXTT2=
EXTT3=
EXTT4=
EXTT5=
EXTT6=
EXTT7=
EXTT8=
EXTT9=
EXTT10=
EXTT11=
PLAYORDER=
